PathFileType	4	(X/Y/Z)	C:\Users\Basilio\Documents\Thesis Gigler\squatting_fais\c3dfiles\073\SLS_back_pre1\markers_experimental.trc
DataRate	CameraRate	NumFrames	NumMarkers	Units	OrigDataRate	OrigDataStartFrame	OrigNumFrames
200.000000	200.000000	4	61	mm	200.000000	1112	1271
Frame#	Time	FHD			LBHD			RBHD			C7			T10			CLAV			LSHO			LUUPA			LMUPA			LDUPA			LLEP			LMEP			LRAD			LUL			LRFIN			RSHO			RUPA1			RMUPA			RDUPA			RLEP			RMEP			RRAD			RUL			RUFIN			LASI			RASI			USACR			LSACR			RSACR			LTHI1			LTHI2			LTHI3			LTHI4			LLFC			LTIB1			LTIB2			LTIB3			LTIB4			LLMAL			LMMAL			LHEE			LMT1			LMT2			LMT5			RTHI			RTHI2			RTHI3			RTHI4			RLFC			RMFC			RTIB1			RTIB2			RTIB3			RTIB4			RLMAL			RMMAL			RHEE			RMT1			RMT2			RMT5			LMFC			
		X1	Y1	Z1	X2	Y2	Z2	X3	Y3	Z3	X4	Y4	Z4	X5	Y5	Z5	X6	Y6	Z6	X7	Y7	Z7	X8	Y8	Z8	X9	Y9	Z9	X10	Y10	Z10	X11	Y11	Z11	X12	Y12	Z12	X13	Y13	Z13	X14	Y14	Z14	X15	Y15	Z15	X16	Y16	Z16	X17	Y17	Z17	X18	Y18	Z18	X19	Y19	Z19	X20	Y20	Z20	X21	Y21	Z21	X22	Y22	Z22	X23	Y23	Z23	X24	Y24	Z24	X25	Y25	Z25	X26	Y26	Z26	X27	Y27	Z27	X28	Y28	Z28	X29	Y29	Z29	X30	Y30	Z30	X31	Y31	Z31	X32	Y32	Z32	X33	Y33	Z33	X34	Y34	Z34	X35	Y35	Z35	X36	Y36	Z36	X37	Y37	Z37	X38	Y38	Z38	X39	Y39	Z39	X40	Y40	Z40	X41	Y41	Z41	X42	Y42	Z42	X43	Y43	Z43	X44	Y44	Z44	X45	Y45	Z45	X46	Y46	Z46	X47	Y47	Z47	X48	Y48	Z48	X49	Y49	Z49	X50	Y50	Z50	X51	Y51	Z51	X52	Y52	Z52	X53	Y53	Z53	X54	Y54	Z54	X55	Y55	Z55	X56	Y56	Z56	X57	Y57	Z57	X58	Y58	Z58	X59	Y59	Z59	X60	Y60	Z60	X61	Y61	Z61	

1113	5.56	-152.4178619384766	1688.616333007813	-758.4184570312501	-286.0617370605469	1653.813720703125	-780.198181152344	-306.1897277832032	1637.607421875	-645.7883300781251	-336.6416625976563	1536.17529296875	-705.0075073242189	-396.1046142578126	1203.563354492188	-717.2677001953126	-214.9589080810547	1448.209228515625	-709.8209838867189	-251.8783111572266	1493.56982421875	-854.3754882812502	-176.5857238769532	1412.177734375	-948.9323730468752	-133.7512817382813	1431.223022460938	-928.4523925781252	-114.8337631225586	1382.774780273438	-961.0168457031252	-12.12750625610352	1354.1748046875	-967.8288574218752	-16.76507759094239	1298.244384765625	-924.6755981445315	249.0415191650391	1369.5927734375	-858.8884277343752	252.0736846923829	1365.070922851563	-933.660095214844	330.4653930664063	1379.07958984375	-852.656188964844	-224.550277709961	1481.906494140625	-560.4756469726564	-137.5335693359375	1363.59912109375	-472.076141357422	-96.7926940917969	1383.384643554688	-487.808074951172	-77.44271850585939	1329.427978515625	-470.1278686523439	11.81403160095215	1304.089965820313	-474.2118530273439	2.042684316635132	1256.239624023438	-541.1826782226564	269.8608093261719	1329.807739257813	-599.8783569335939	273.3693847656251	1326.184326171875	-518.3825073242189	355.0816345214844	1350.334106445313	-593.5918579101564	-243.2283325195313	1036.342651367188	-852.202819824219	-236.8775024414063	1025.850219726563	-600.0747680664064	-419.834442138672	1101.308227539063	-719.9550781250001	-433.6622619628907	1074.059326171875	-749.1717529296876	-437.0047912597657	1070.82470703125	-692.8471679687501	-229.1712188720704	715.0687255859376	-900.4388427734377	-181.0981140136719	646.6258544921876	-882.9949340820315	-141.4369812011719	657.8005371093751	-855.8264770507815	-202.3435363769532	590.8713378906251	-874.6392822265627	-207.6244201660157	544.7830810546876	-873.807312011719	-354.1983032226563	429.5645751953126	-820.2972412109377	-410.0231323242189	468.6617431640626	-873.743347167969	-405.3414001464845	431.6532592773439	-852.9939575195315	-478.8833007812501	409.100311279297	-817.879089355469	-610.0526123046876	431.0070800781251	-846.633483886719	-582.7590332031251	431.978729248047	-760.6870117187501	-653.5989990234376	483.8442382812501	-806.1472167968752	-606.7084960937501	268.5483398437501	-754.3371582031251	-607.3395385742189	263.8599548339844	-793.5599365234377	-639.9972534179689	288.2405090332032	-846.3759765625002	-341.0734863281251	797.503356933594	-547.8042602539064	-307.9114990234376	740.4451293945314	-551.1141967773439	-274.3395690917969	740.9031982421876	-551.7608642578126	-336.1690368652344	666.4913940429689	-577.5683593750001	-323.2350463867188	515.9003906250001	-603.9794921875001	-317.7796936035157	515.3908691406251	-734.9907226562501	-283.6747741699219	359.1272888183594	-704.5558471679689	-312.6423950195313	272.6393737792969	-646.7774658203126	-286.2624511718751	273.6583251953126	-687.4913330078126	-305.9101562500001	233.0900421142579	-724.5928344726564	-360.7259216308594	99.51043701171878	-685.6344604492189	-353.5239257812501	130.4586639404297	-769.8281860351565	-431.0713806152345	82.26552581787111	-743.6735839843751	-206.6215515136719	55.5923538208008	-759.9838256835939	-206.0787353515626	51.21799850463869	-719.3176269531251	-248.6273956298829	34.19110488891602	-670.1546630859376	-213.8703918457032	543.2280273437501	-736.5840454101564	
1114	5.565	-152.4213256835938	1688.6181640625	-758.2484130859376	-286.1246948242188	1653.860595703125	-779.933044433594	-306.1392211914063	1637.609008789063	-645.5530395507814	-336.7032775878907	1536.188842773438	-704.8918457031251	-396.0906066894532	1203.581298828125	-717.2964477539064	-215.0888214111329	1448.199462890625	-709.6644897460939	-251.9039916992188	1493.6748046875	-854.149108886719	-176.6166687011719	1412.283081054688	-948.737487792969	-133.8046112060547	1431.345092773438	-928.2812500000002	-114.9178314208985	1382.95556640625	-960.8854980468752	-12.18592834472657	1354.338012695313	-967.6890258789065	-16.81155014038086	1298.410888671875	-924.6138916015627	248.9878540039063	1369.744506835938	-858.7482910156252	252.0846710205079	1365.341796875	-933.5115966796877	330.4129943847657	1379.2412109375	-852.5363769531252	-224.6363677978516	1481.879150390625	-560.3385620117189	-137.5766143798828	1363.61572265625	-471.9584960937501	-96.83283233642581	1383.412475585938	-487.6225891113282	-77.4727020263672	1329.433959960938	-470.0050659179689	11.78717517852783	1304.158813476563	-474.0750427246095	2.079625844955445	1256.323608398438	-541.0663452148439	270.0371704101563	1330.099609375	-599.8544921875001	273.3527221679688	1326.404541015625	-518.2415771484376	355.0728149414063	1350.601806640625	-593.4332275390626	-243.0319213867188	1036.344116210938	-852.2185058593752	-236.9249725341797	1025.974365234375	-600.0506591796876	-419.8004150390626	1101.29541015625	-720.0977783203126	-433.5250244140626	1074.03857421875	-749.2874755859376	-436.9367675781251	1070.830932617188	-693.0197143554689	-229.2497100830079	715.0635986328126	-900.5412597656252	-181.1808471679688	646.5451660156251	-883.2662353515627	-141.5063171386719	657.7092895507814	-856.0406494140627	-202.5429840087891	590.8021850585939	-874.814880371094	-207.7913055419922	544.7310791015626	-874.1180419921877	-354.3992309570313	429.5492248535157	-820.6472778320315	-410.1926879882814	468.5698242187501	-873.9472656250002	-405.4032592773439	431.5401611328126	-853.1064453125002	-479.0162963867189	409.0289611816407	-817.960144042969	-610.1878051757814	430.9567260742189	-846.678405761719	-582.8696899414064	431.9623413085939	-760.7311401367189	-653.7167358398439	483.7872314453126	-806.2014160156252	-606.7398681640626	268.4983825683594	-754.3936157226564	-607.3993530273439	263.8156433105469	-793.552429199219	-640.0919799804689	288.1406860351563	-846.427673339844	-341.3324584960938	797.6128540039065	-547.7675170898439	-308.1106262207032	740.5537719726564	-550.9746093750001	-274.5033569335938	741.0068969726564	-551.5127563476564	-336.2660217285157	666.5438232421876	-577.5032348632814	-323.2857360839844	515.9663696289064	-603.7745361328126	-312.7352600097657	513.9025268554689	-734.6057739257814	-283.5081787109376	359.1192932128907	-704.1818847656251	-312.7559204101563	272.6165466308594	-646.5272827148439	-286.2682189941407	273.6546325683594	-687.1362304687501	-305.8634033203126	233.1153869628907	-724.2056884765626	-360.7811279296876	99.39942932128909	-685.4379882812501	-353.6833801269532	130.3425903320313	-769.1485595703127	-431.1248474121095	82.28240966796876	-743.5911865234376	-206.617660522461	55.68338012695314	-759.8895874023439	-206.0696563720704	51.184383392334	-719.2714843750001	-248.6380004882813	34.1252555847168	-670.0860595703126	-213.8098144531251	543.1648559570314	-736.7509765625001	
1115	5.57	-152.3316802978516	1688.703857421875	-758.0773315429689	-286.1731262207032	1653.934814453125	-779.7189941406252	-306.1912536621094	1637.64111328125	-645.1419067382814	-336.7502746582032	1536.230834960938	-704.6560058593751	-396.054168701172	1203.611572265625	-717.3324584960939	-215.0705871582032	1448.201538085938	-709.5270385742189	-251.9253997802735	1493.760375976563	-853.9505004882815	-176.6369171142578	1412.475463867188	-948.6065673828127	-133.8393707275391	1431.491333007813	-928.088073730469	-114.9641647338867	1383.15087890625	-960.732116699219	-12.16863250732422	1354.55224609375	-967.5610961914065	-16.86405563354493	1298.53955078125	-924.5327148437502	248.9506530761719	1369.87060546875	-858.621520996094	252.0981750488282	1365.610229492188	-933.3599243164065	330.3843078613282	1379.411743164063	-852.4387817382815	-224.7179870605469	1481.871459960938	-560.1654663085939	-137.6325378417969	1363.588745117188	-471.8032226562501	-96.87769317626956	1383.419555664063	-487.4651489257814	-77.50428771972658	1329.463256835938	-469.8236694335939	11.77896022796631	1304.201782226563	-473.946014404297	2.098376512527466	1256.429931640625	-540.9461059570314	269.8664855957032	1330.367431640625	-599.5548706054689	273.3294982910157	1326.636474609375	-518.1151733398439	355.0779418945313	1350.884033203125	-593.3311157226564	-242.8084869384766	1036.343505859375	-852.1646728515627	-236.984603881836	1026.042846679688	-599.9307861328126	-419.7554626464845	1101.287231445313	-720.1630859375001	-433.5654296875001	1074.067260742188	-749.4203491210939	-436.9309387207032	1070.84033203125	-693.1897583007814	-229.2499237060547	715.0618286132814	-900.6480102539065	-181.2901000976563	646.4727783203126	-883.455993652344	-141.5738372802735	657.6391601562501	-856.320739746094	-202.6031188964844	590.7525024414064	-875.087341308594	-207.8804016113282	544.7318725585939	-874.414245605469	-354.5187072753907	429.4790649414064	-820.9441528320315	-410.3924560546876	468.4763488769532	-874.156921386719	-405.1275939941407	431.4284057617189	-853.0642089843752	-479.0928649902345	409.0175781250001	-818.0164794921877	-610.3391113281251	430.855926513672	-846.7454833984377	-582.9752807617189	431.9408264160157	-760.8432006835939	-653.8231201171876	483.7262268066407	-806.2507934570315	-606.8270263671876	268.4617614746094	-754.3883666992189	-607.4656982421876	263.7753601074219	-793.584167480469	-640.2424316406251	288.0246276855469	-846.3996582031252	-341.5429687500001	797.6632080078127	-547.7307128906251	-308.2868347167969	740.6382446289064	-550.8488159179689	-274.7221679687501	741.0941162109376	-551.3259887695314	-336.3806152343751	666.5982055664064	-577.3766479492189	-323.3481750488282	516.0049438476564	-603.5805664062501	-314.2280578613282	514.7312011718751	-734.4411010742189	-283.3214416503907	359.1110839843751	-703.7535400390626	-312.8516845703126	272.6678771972657	-646.2427978515626	-286.2658081054688	273.6123352050782	-686.7774658203126	-305.7961425781251	233.0966339111329	-723.7928466796876	-360.7984008789063	99.28131866455081	-685.2040405273439	-353.3822937011719	130.65478515625	-769.3143310546877	-431.1149291992189	82.27558898925783	-743.5127563476564	-206.6511535644532	55.76180648803712	-759.7938232421876	-206.1060791015626	51.23689270019533	-719.1024780273439	-248.666244506836	34.05010223388673	-670.0371704101564	-213.7950134277344	543.0609741210939	-736.8932495117189	
1116	5.575	-152.4302215576172	1688.677124023438	-757.8977050781251	-286.1413879394532	1654.041137695313	-779.434753417969	-306.2250671386719	1637.889526367188	-645.2148437500001	-336.7526550292969	1536.217041015625	-704.4704589843751	-396.0152587890626	1203.611328125	-717.3729248046876	-215.1676177978516	1448.25244140625	-709.3570556640626	-251.9884338378907	1493.892211914063	-853.6992187500002	-176.7647552490235	1412.660400390625	-948.4490966796877	-133.897933959961	1431.61865234375	-927.9446411132815	-114.9609375	1383.336791992188	-960.5672607421877	-12.15406799316407	1354.706420898438	-967.4088134765627	-16.94020462036133	1298.746826171875	-924.4988403320315	248.9378967285157	1370.010009765625	-858.507507324219	252.1078033447266	1365.795288085938	-933.2460937500002	330.3286743164063	1379.537353515625	-852.2766113281252	-224.8315887451172	1481.839477539063	-559.9859008789064	-137.679443359375	1363.555908203125	-471.6078186035157	-96.95056915283206	1383.402099609375	-487.2362060546876	-77.4859085083008	1329.463500976563	-469.6560668945314	11.78610706329346	1304.2822265625	-473.7740478515626	2.111122608184815	1256.486694335938	-540.8076782226564	269.6734619140626	1330.686157226563	-599.2506713867189	273.3128967285157	1326.802124023438	-517.9763793945314	355.0281677246094	1351.151489257813	-593.1721801757814	-242.6676025390626	1036.369018554688	-852.0427246093752	-236.9999237060547	1026.138549804688	-599.7544555664064	-419.7590332031251	1101.318115234375	-720.3647460937501	-433.4979858398439	1074.05859375	-749.5451660156251	-436.9537963867189	1070.811889648438	-693.3107299804689	-229.2862701416016	715.0535278320314	-900.8090820312502	-181.3507843017578	646.4317626953126	-883.7019042968752	-141.6499176025391	657.5637817382814	-856.556579589844	-202.7928161621094	590.7512207031251	-875.3061523437502	-208.0013275146485	544.6710815429689	-874.7183837890627	-354.6419677734376	429.4368896484376	-821.040954589844	-410.544403076172	468.3616638183595	-874.3462524414065	-405.3212890625001	431.3229064941407	-853.2102050781252	-479.2222290039064	408.9475097656251	-818.1044921875002	-610.5054931640626	430.7793579101564	-846.8032836914065	-583.1055908203126	431.9029541015626	-760.9660644531251	-653.9551391601564	483.6566467285157	-806.3647460937502	-606.9523315429689	268.4487915039063	-754.4230957031251	-607.5527343750001	263.7423706054688	-793.565368652344	-640.3684082031251	287.9867858886719	-846.365905761719	-341.7667541503907	797.7156982421877	-547.7840576171876	-308.5188903808594	740.7064819335939	-550.7317504882814	-274.8888854980469	741.1726074218751	-551.0715942382814	-336.4621582031251	666.6535644531251	-577.2995605468751	-323.3983764648438	516.0518798828126	-603.4096679687501	-313.9349060058594	514.7349853515626	-734.2290039062501	-283.1669311523438	359.1031494140626	-703.4196777343751	-312.9628295898438	272.6869812011719	-645.9329223632814	-286.2896118164063	273.6003112792969	-686.4389648437501	-305.8228149414063	233.0411529541016	-723.5255126953126	-360.7438049316407	99.20481872558597	-684.9502563476564	-353.3629760742188	130.6998443603516	-769.0740356445315	-431.1168518066407	82.26966857910158	-743.4844970703126	-206.5912170410157	55.82931137084962	-759.7392578125001	-206.0646972656251	51.18235778808595	-718.9925537109376	-248.6761016845704	33.98191833496094	-669.9748535156251	-213.7494354248047	543.0191040039064	-737.0349731445314	
